<svg xmlns="http://www.w3.org/2000/svg" width="18" height="17" viewBox="0 0 17.428 16.636">
  <path id="_290115_alarm_clock_schedule_time_timer_icon" data-name="290115_alarm_clock_schedule_time_timer_icon" d="M18.281,7.4c-.131-.229-.271-.453-.421-.669A1.58,1.58,0,1,0,15.7,4.57c-.216-.151-.439-.29-.669-.421A2.371,2.371,0,1,1,18.281,7.4Zm.356,4.312a7.884,7.884,0,0,1-2.06,5.315l1.947,1.947a.387.387,0,0,1-.547.547l-1.947-1.947a7.888,7.888,0,0,1-10.63,0L3.452,19.523a.387.387,0,1,1-.547-.547l1.947-1.947a7.918,7.918,0,1,1,13.784-5.315Zm-7.922-7.13a7.13,7.13,0,1,0,7.13,7.13A7.13,7.13,0,0,0,10.714,4.584Zm.4,8.658v3.621a.4.4,0,0,1-.792,0V13.242a1.567,1.567,0,0,1-.959-2.337l-1.7-1.7a.387.387,0,0,1,.547-.547l1.7,1.7a1.567,1.567,0,0,1,.808-.229,1.581,1.581,0,0,1,.4,3.113Zm-.4-2.32a.792.792,0,1,0,.792.792A.792.792,0,0,0,10.714,10.922ZM4.377,3.792A1.58,1.58,0,0,0,3.57,6.733c-.151.216-.29.439-.421.669A2.371,2.371,0,1,1,6.4,4.148c-.23.131-.453.271-.669.421A1.578,1.578,0,0,0,4.377,3.792Z" transform="translate(-2 -3)" fill="#9b9b9b" fill-rule="evenodd"/>
</svg>
