<svg xmlns="http://www.w3.org/2000/svg" width="23.046" height="21.999" viewBox="0 0 23.046 21.999">
  <path id="_290115_alarm_clock_schedule_time_timer_icon" data-name="290115_alarm_clock_schedule_time_timer_icon" d="M23.529,8.821c-.173-.3-.358-.6-.557-.884A2.089,2.089,0,1,0,20.11,5.076c-.285-.2-.58-.384-.884-.557a3.135,3.135,0,1,1,4.3,4.3Zm.47,5.7a10.425,10.425,0,0,1-2.724,7.029l2.574,2.574a.511.511,0,0,1-.723.723l-2.574-2.574a10.43,10.43,0,0,1-14.057,0L3.92,24.85a.511.511,0,1,1-.723-.723l2.574-2.574A10.471,10.471,0,1,1,24,14.523ZM13.523,5.1a9.428,9.428,0,1,0,9.428,9.428A9.428,9.428,0,0,0,13.523,5.1Zm.524,11.449v4.788a.524.524,0,0,1-1.048,0V16.544a2.073,2.073,0,0,1-1.269-3.09L9.482,11.206a.511.511,0,0,1,.723-.723l2.249,2.248a2.073,2.073,0,0,1,1.069-.3,2.091,2.091,0,0,1,.524,4.116Zm-.524-3.068a1.048,1.048,0,1,0,1.048,1.048A1.048,1.048,0,0,0,13.523,13.476ZM5.143,4.048A2.089,2.089,0,0,0,4.076,7.937c-.2.285-.384.581-.557.884a3.135,3.135,0,1,1,4.3-4.3c-.3.173-.6.358-.884.557A2.087,2.087,0,0,0,5.143,4.048Z" transform="translate(-2 -3)" fill="#fff" fill-rule="evenodd"/>
</svg>
