<svg xmlns="http://www.w3.org/2000/svg" width="29.795" height="19.399" viewBox="0 0 29.795 19.399">
  <path id="_3586360_email_envelope_mail_send_icon" data-name="3586360_email_envelope_mail_send_icon" d="M36.731,40.178a.513.513,0,0,0,.027-.159V21.657a.509.509,0,0,0-.028-.16c0-.007,0-.014-.007-.021a.516.516,0,0,0-.1-.159s0-.007-.006-.01l-.006,0a.52.52,0,0,0-.153-.112l-.012-.007a.511.511,0,0,0-.177-.043l-.018,0-.017,0H7.483l-.017,0-.017,0a.517.517,0,0,0-.179.043l-.01.005a.512.512,0,0,0-.155.113l-.006,0s0,.007-.006.01a.518.518,0,0,0-.1.159c0,.007,0,.014-.007.021a.509.509,0,0,0-.028.16V40.02a.513.513,0,0,0,.028.162c0,.007,0,.013.006.02a.519.519,0,0,0,.1.16s0,.006.006.009l.007.006a.524.524,0,0,0,.055.048c.009.007.016.015.025.021a.48.48,0,0,0,.073.04l.018.01a.519.519,0,0,0,.2.042H36.24a.513.513,0,0,0,.2-.042c.01,0,.019-.01.028-.015a.529.529,0,0,0,.063-.035c.01-.007.02-.017.03-.025a.476.476,0,0,0,.05-.045l.009-.008s0-.007.006-.01a.518.518,0,0,0,.1-.158A.19.19,0,0,0,36.731,40.178ZM8,22.833l8.726,7.97L8,38.838Zm17.885,7.58a.494.494,0,0,0-.1.076c-.011.012-.015.029-.025.042l-3.9,3.558L8.819,22.176H34.9ZM17.5,31.505l4.016,3.668a.518.518,0,0,0,.7,0l3.966-3.623L34.9,39.5H8.811Zm9.45-.657,8.776-8.016V38.846Z" transform="translate(-6.964 -21.139)" fill="#fff"/>
</svg>
