<svg xmlns="http://www.w3.org/2000/svg" width="29.794" height="28.441" viewBox="0 0 29.794 28.441">
  <path id="_290115_alarm_clock_schedule_time_timer_icon" data-name="290115_alarm_clock_schedule_time_timer_icon" d="M29.832,10.525c-.224-.392-.463-.774-.72-1.143a2.7,2.7,0,1,0-3.7-3.7c-.369-.258-.75-.5-1.143-.72a4.053,4.053,0,1,1,5.563,5.562ZM30.44,17.9a13.478,13.478,0,0,1-3.521,9.087l3.328,3.328a.661.661,0,1,1-.935.935l-3.328-3.328a13.484,13.484,0,0,1-18.173,0L4.482,31.247a.661.661,0,0,1-.935-.935l3.328-3.328A13.537,13.537,0,1,1,30.44,17.9ZM16.9,5.709A12.189,12.189,0,1,0,29.086,17.9,12.189,12.189,0,0,0,16.9,5.709Zm.677,14.8V26.7a.677.677,0,0,1-1.354,0V20.51a2.68,2.68,0,0,1-1.64-3.994l-2.907-2.906a.661.661,0,0,1,.935-.935l2.907,2.906a2.68,2.68,0,0,1,1.382-.391,2.7,2.7,0,0,1,.677,5.321ZM16.9,16.543A1.354,1.354,0,1,0,18.252,17.9,1.355,1.355,0,0,0,16.9,16.543ZM6.063,4.354A2.7,2.7,0,0,0,4.684,9.382c-.258.369-.5.751-.72,1.143A4.053,4.053,0,1,1,9.525,4.963c-.393.224-.775.462-1.143.72A2.7,2.7,0,0,0,6.063,4.354Z" transform="translate(-2 -3)" fill="#fff" fill-rule="evenodd"/>
</svg>
