<svg id="facebook" xmlns="http://www.w3.org/2000/svg" width="25" height="25" viewBox="0 0 25 25">
  <path id="Path_4" data-name="Path 4" d="M12.5,25h0A12.5,12.5,0,0,1,0,12.5H0A12.5,12.5,0,0,1,12.5,0h0A12.5,12.5,0,0,1,25,12.5h0A12.5,12.5,0,0,1,12.5,25Z" fill="#3b579d"/>
  <path id="f" d="M350.955,172.323V162.64h3.25l.487-3.773h-3.737v-2.41c0-1.092.3-1.838,1.87-1.838h2v-3.372a27.113,27.113,0,0,0-2.912-.147c-2.88,0-4.853,1.758-4.853,4.988v2.783H343.8v3.773h3.258v9.68Z" transform="translate(-335.205 -147.323)" fill="#fff"/>
</svg>
