<svg id="instagram" xmlns="http://www.w3.org/2000/svg" xmlns:xlink="http://www.w3.org/1999/xlink" width="25" height="25" viewBox="0 0 25 25">
  <defs>
    <linearGradient id="linear-gradient" x1="0.146" y1="0.854" x2="0.854" y2="0.146" gradientUnits="objectBoundingBox">
      <stop offset="0" stop-color="#ffd521"/>
      <stop offset="0.055" stop-color="#ffd020"/>
      <stop offset="0.124" stop-color="#fec01e"/>
      <stop offset="0.2" stop-color="#fca71b"/>
      <stop offset="0.282" stop-color="#fa8316"/>
      <stop offset="0.368" stop-color="#f85510"/>
      <stop offset="0.456" stop-color="#f51e09"/>
      <stop offset="0.5" stop-color="#f30005"/>
      <stop offset="0.503" stop-color="#f20007"/>
      <stop offset="0.597" stop-color="#e1003b"/>
      <stop offset="0.688" stop-color="#d30067"/>
      <stop offset="0.776" stop-color="#c70088"/>
      <stop offset="0.859" stop-color="#bf00a0"/>
      <stop offset="0.936" stop-color="#bb00af"/>
      <stop offset="1" stop-color="#b900b4"/>
    </linearGradient>
  </defs>
  <path id="Path_1" data-name="Path 1" d="M12.5,25h0A12.5,12.5,0,0,1,0,12.5H0A12.5,12.5,0,0,1,12.5,0h0A12.5,12.5,0,0,1,25,12.5h0A12.5,12.5,0,0,1,12.5,25Z" fill="url(#linear-gradient)"/>
  <g id="Group_1" data-name="Group 1" transform="translate(3.965 3.968)">
    <path id="Path_2" data-name="Path 2" d="M167.135,160.237c2.277,0,2.548.008,3.448.05a4.681,4.681,0,0,1,1.585.295,2.822,2.822,0,0,1,1.617,1.617,4.747,4.747,0,0,1,.295,1.585c.04.9.05,1.17.05,3.447s-.007,2.548-.05,3.447a4.682,4.682,0,0,1-.295,1.585,2.822,2.822,0,0,1-1.617,1.618,4.747,4.747,0,0,1-1.585.295c-.9.04-1.17.05-3.448.05s-2.548-.008-3.447-.05a4.682,4.682,0,0,1-1.585-.295,2.822,2.822,0,0,1-1.617-1.618,4.747,4.747,0,0,1-.3-1.585c-.04-.9-.05-1.17-.05-3.447s.007-2.548.05-3.447a4.682,4.682,0,0,1,.3-1.585,2.822,2.822,0,0,1,1.617-1.617,4.746,4.746,0,0,1,1.585-.295c.9-.042,1.17-.05,3.447-.05m0-1.537c-2.317,0-2.607.01-3.518.052a6.272,6.272,0,0,0-2.072.4,4.119,4.119,0,0,0-1.51.982,4.2,4.2,0,0,0-.985,1.512,6.309,6.309,0,0,0-.4,2.072c-.042.91-.053,1.2-.053,3.518s.01,2.607.053,3.517a6.272,6.272,0,0,0,.4,2.072,4.378,4.378,0,0,0,2.5,2.493,6.309,6.309,0,0,0,2.072.4c.91.042,1.2.052,3.518.052s2.607-.01,3.517-.052a6.272,6.272,0,0,0,2.073-.4,4.378,4.378,0,0,0,2.492-2.5,6.309,6.309,0,0,0,.4-2.072c.042-.91.052-1.2.052-3.518s-.01-2.607-.052-3.517a6.272,6.272,0,0,0-.4-2.073,4.378,4.378,0,0,0-2.5-2.492,6.31,6.31,0,0,0-2.072-.4c-.908-.04-1.2-.05-3.515-.05Z" transform="translate(-158.6 -158.7)" fill="#fff"/>
    <path id="Path_3" data-name="Path 3" d="M329.083,324.7a4.382,4.382,0,1,0,4.382,4.383A4.383,4.383,0,0,0,329.083,324.7Zm0,7.228a2.845,2.845,0,1,1,2.845-2.845A2.845,2.845,0,0,1,329.083,331.928Z" transform="translate(-320.548 -320.55)" fill="#fff"/>
    <circle id="Ellipse_1" data-name="Ellipse 1" cx="1.025" cy="1.025" r="1.025" transform="translate(12.065 2.952)" fill="#fff"/>
  </g>
</svg>
