<svg id="twitter" xmlns="http://www.w3.org/2000/svg" width="25" height="25" viewBox="0 0 25 25">
  <g id="Dark_Blue">
    <path id="Path_5" data-name="Path 5" d="M12.5,0h0A12.5,12.5,0,0,1,25,12.5h0A12.5,12.5,0,0,1,12.5,25h0A12.5,12.5,0,0,1,0,12.5H0A12.5,12.5,0,0,1,12.5,0Z" fill="#1da1f2"/>
  </g>
  <g id="Logo_FIXED">
    <path id="Path_6" data-name="Path 6" d="M192.608,258.8a9.062,9.062,0,0,0,9.122-9.123c0-.137,0-.278-.01-.415a6.516,6.516,0,0,0,1.6-1.66,6.369,6.369,0,0,1-1.84.505,3.214,3.214,0,0,0,1.41-1.773,6.415,6.415,0,0,1-2.035.778,3.208,3.208,0,0,0-5.462,2.923,9.106,9.106,0,0,1-6.608-3.35,3.209,3.209,0,0,0,.993,4.28,3.189,3.189,0,0,1-1.455-.4v.04a3.206,3.206,0,0,0,2.572,3.142,3.218,3.218,0,0,1-1.447.055,3.213,3.213,0,0,0,2.995,2.228,6.423,6.423,0,0,1-3.98,1.375,5.98,5.98,0,0,1-.762-.047,9.031,9.031,0,0,0,4.907,1.44" transform="translate(-183.008 -239.949)" fill="#fff"/>
    <path id="Path_7" data-name="Path 7" d="M12.5,0h0A12.5,12.5,0,0,1,25,12.5h0A12.5,12.5,0,0,1,12.5,25h0A12.5,12.5,0,0,1,0,12.5H0A12.5,12.5,0,0,1,12.5,0Z" fill="none"/>
  </g>
</svg>
