<svg id="whatsapp" xmlns="http://www.w3.org/2000/svg" width="25" height="25" viewBox="0 0 25 25">
  <path id="Path_27" data-name="Path 27" d="M12.5,25h0A12.5,12.5,0,0,1,0,12.5H0A12.5,12.5,0,0,1,12.5,0h0A12.5,12.5,0,0,1,25,12.5h0A12.5,12.5,0,0,1,12.5,25Z" fill="#25d366"/>
  <g id="Group_7" data-name="Group 7" transform="translate(4.253 4.27)">
    <g id="WA_Logo">
      <g id="Group_6" data-name="Group 6">
        <path id="Path_28" data-name="Path 28" d="M184.2,173.21a8.217,8.217,0,0,0-12.93,9.913L170.1,187.38l4.355-1.142a8.194,8.194,0,0,0,3.925,1h0A8.22,8.22,0,0,0,184.2,173.21Zm-5.81,12.64h0a6.807,6.807,0,0,1-3.475-.952l-.25-.147-2.585.677.69-2.52-.162-.258a6.828,6.828,0,1,1,5.785,3.2Zm3.745-5.115c-.205-.1-1.215-.6-1.4-.668s-.325-.1-.462.1-.53.667-.65.8-.24.155-.445.053a5.583,5.583,0,0,1-1.65-1.02,6.234,6.234,0,0,1-1.143-1.423c-.12-.205-.012-.318.09-.42s.205-.24.308-.36a1.369,1.369,0,0,0,.205-.343.378.378,0,0,0-.018-.36c-.053-.1-.463-1.113-.633-1.525s-.335-.345-.463-.352-.257-.007-.392-.007a.755.755,0,0,0-.548.257,2.3,2.3,0,0,0-.717,1.713,3.984,3.984,0,0,0,.837,2.122,9.15,9.15,0,0,0,3.508,3.1,11.728,11.728,0,0,0,1.17.433,2.8,2.8,0,0,0,1.293.082,2.118,2.118,0,0,0,1.385-.975,1.737,1.737,0,0,0,.12-.975C182.472,180.89,182.335,180.84,182.13,180.735Z" transform="translate(-170.1 -170.8)" fill="#fff" fill-rule="evenodd"/>
      </g>
    </g>
  </g>
</svg>
